<mxfile host="app.diagrams.net" agent="Mozilla/5.0 (Windows NT 10.0; Win64; x64) AppleWebKit/537.36 (KHTML, like Gecko) Chrome/137.0.0.0 Safari/537.36" version="27.1.5">
  <diagram name="Page-1" id="74b105a0-9070-1c63-61bc-23e55f88626e">
    <mxGraphModel dx="1245" dy="451" grid="1" gridSize="10" guides="1" tooltips="1" connect="1" arrows="1" fold="1" page="1" pageScale="1.5" pageWidth="1169" pageHeight="826" background="none" math="0" shadow="0">
      <root>
        <mxCell id="0" style=";html=1;" />
        <mxCell id="1" style=";html=1;" parent="0" />
        <mxCell id="AdzBgTur88m9vbmycL0G-27" value="&lt;b style=&quot;font-size: 10px;&quot;&gt;WWW&lt;/b&gt;" style="ellipse;shape=cloud;whiteSpace=wrap;html=1;fontSize=10;fillColor=#FFFFFF;strokeColor=#6c8ebf;" parent="1" vertex="1">
          <mxGeometry x="692.5" y="244" width="120" height="80" as="geometry" />
        </mxCell>
        <mxCell id="NwKOcJaawwe2SMIx4jGH-65" value="" style="edgeStyle=orthogonalEdgeStyle;rounded=0;orthogonalLoop=1;jettySize=auto;html=1;dashed=1;fontSize=11;fontColor=#FF0000;startArrow=classic;startFill=1;endArrow=none;endFill=0;strokeColor=#0000CC;strokeWidth=1;" parent="1" edge="1">
          <mxGeometry relative="1" as="geometry">
            <mxPoint x="580.5" y="381" as="sourcePoint" />
            <mxPoint x="581" y="410" as="targetPoint" />
          </mxGeometry>
        </mxCell>
        <mxCell id="JAKMuyajma6vQaw-Ln5v-60" value="index.php" style="text;html=1;align=center;verticalAlign=middle;whiteSpace=wrap;rounded=0;fontStyle=1;fontSize=10;fontColor=#FF0000;" parent="1" vertex="1">
          <mxGeometry x="549" y="360.5" width="65" height="20.5" as="geometry" />
        </mxCell>
        <mxCell id="AdzBgTur88m9vbmycL0G-13" value="Public" style="text;html=1;align=center;verticalAlign=middle;resizable=0;points=[];autosize=1;fontSize=12;" parent="1" vertex="1">
          <mxGeometry x="614" y="332" width="50" height="20" as="geometry" />
        </mxCell>
        <mxCell id="NwKOcJaawwe2SMIx4jGH-13" value="" style="shape=waypoint;sketch=0;fillStyle=solid;size=6;pointerEvents=1;points=[];fillColor=none;resizable=0;rotatable=0;perimeter=centerPerimeter;snapToPoint=1;fontSize=10;fontColor=#FF0000;" parent="1" vertex="1">
          <mxGeometry x="615" y="332" width="40" height="40" as="geometry" />
        </mxCell>
        <mxCell id="NwKOcJaawwe2SMIx4jGH-18" value="Private" style="text;html=1;align=center;verticalAlign=middle;resizable=0;points=[];autosize=1;fontSize=12;" parent="1" vertex="1">
          <mxGeometry x="821.5" y="334" width="50" height="20" as="geometry" />
        </mxCell>
        <mxCell id="NwKOcJaawwe2SMIx4jGH-21" value="app.php" style="text;html=1;align=center;verticalAlign=middle;whiteSpace=wrap;rounded=0;fontStyle=1;fontSize=10;fontColor=#0000CC;" parent="1" vertex="1">
          <mxGeometry x="962.5" y="381" width="65" height="20.5" as="geometry" />
        </mxCell>
        <mxCell id="NwKOcJaawwe2SMIx4jGH-22" value="" style="edgeStyle=orthogonalEdgeStyle;rounded=0;orthogonalLoop=1;jettySize=auto;html=1;strokeColor=#00331A;strokeWidth=1;dashed=1;endArrow=none;endFill=0;fontSize=10;" parent="1" edge="1">
          <mxGeometry relative="1" as="geometry">
            <mxPoint x="634.5" y="356" as="sourcePoint" />
            <mxPoint x="614" y="371" as="targetPoint" />
            <Array as="points">
              <mxPoint x="635" y="371" />
            </Array>
          </mxGeometry>
        </mxCell>
        <mxCell id="NwKOcJaawwe2SMIx4jGH-23" value="" style="shape=waypoint;sketch=0;fillStyle=solid;size=6;pointerEvents=1;points=[];fillColor=none;resizable=0;rotatable=0;perimeter=centerPerimeter;snapToPoint=1;fontSize=10;fontStyle=1" parent="1" vertex="1">
          <mxGeometry x="832.5" y="335" width="40" height="40" as="geometry" />
        </mxCell>
        <mxCell id="NwKOcJaawwe2SMIx4jGH-24" value="" style="shape=waypoint;sketch=0;fillStyle=solid;size=6;pointerEvents=1;points=[];fillColor=none;resizable=0;rotatable=0;perimeter=centerPerimeter;snapToPoint=1;fontSize=10;" parent="1" vertex="1">
          <mxGeometry x="596" y="351" width="40" height="40" as="geometry" />
        </mxCell>
        <mxCell id="NwKOcJaawwe2SMIx4jGH-26" value="" style="edgeStyle=orthogonalEdgeStyle;rounded=0;orthogonalLoop=1;jettySize=auto;html=1;strokeColor=#00331A;strokeWidth=1;dashed=1;endArrow=none;endFill=0;fontSize=10;" parent="1" target="NwKOcJaawwe2SMIx4jGH-27" edge="1">
          <mxGeometry relative="1" as="geometry">
            <mxPoint x="853.5" y="360" as="sourcePoint" />
            <mxPoint x="868" y="405" as="targetPoint" />
            <Array as="points">
              <mxPoint x="854" y="375" />
            </Array>
          </mxGeometry>
        </mxCell>
        <mxCell id="NwKOcJaawwe2SMIx4jGH-27" value="" style="shape=waypoint;sketch=0;fillStyle=solid;size=6;pointerEvents=1;points=[];fillColor=none;resizable=0;rotatable=0;perimeter=centerPerimeter;snapToPoint=1;fontSize=10;" parent="1" vertex="1">
          <mxGeometry x="853.5" y="355" width="40" height="40" as="geometry" />
        </mxCell>
        <mxCell id="NwKOcJaawwe2SMIx4jGH-30" value="core" style="text;html=1;align=center;verticalAlign=middle;resizable=0;points=[];autosize=1;strokeColor=none;fillColor=none;fontSize=12;" parent="1" vertex="1">
          <mxGeometry x="869.5" y="365" width="40" height="20" as="geometry" />
        </mxCell>
        <mxCell id="NwKOcJaawwe2SMIx4jGH-33" value="init.php" style="text;html=1;align=center;verticalAlign=middle;whiteSpace=wrap;rounded=0;fontStyle=1;fontSize=10;fontColor=#006600;" parent="1" vertex="1">
          <mxGeometry x="955" y="402.5" width="65" height="20.5" as="geometry" />
        </mxCell>
        <mxCell id="NwKOcJaawwe2SMIx4jGH-35" value="config.php" style="text;html=1;align=center;verticalAlign=middle;whiteSpace=wrap;rounded=0;fontStyle=1;fontSize=10;fontColor=#FF66B3;" parent="1" vertex="1">
          <mxGeometry x="968.5" y="426" width="65" height="20.5" as="geometry" />
        </mxCell>
        <mxCell id="NwKOcJaawwe2SMIx4jGH-41" value="" style="edgeStyle=orthogonalEdgeStyle;rounded=0;orthogonalLoop=1;jettySize=auto;html=1;dashed=1;startArrow=classic;startFill=1;endArrow=classic;endFill=1;strokeColor=#FF0000;strokeWidth=1;" parent="1" edge="1">
          <mxGeometry relative="1" as="geometry">
            <mxPoint x="553.5" y="372" as="sourcePoint" />
            <mxPoint x="670" y="280" as="targetPoint" />
            <Array as="points">
              <mxPoint x="472" y="372" />
              <mxPoint x="472" y="280" />
            </Array>
          </mxGeometry>
        </mxCell>
        <mxCell id="NwKOcJaawwe2SMIx4jGH-42" value="FrontEnd" style="text;html=1;align=center;verticalAlign=middle;resizable=0;points=[];autosize=1;strokeColor=none;fillColor=none;fontSize=11;fontColor=#FF0000;fontStyle=1" parent="1" vertex="1">
          <mxGeometry x="609" y="314" width="60" height="20" as="geometry" />
        </mxCell>
        <mxCell id="NwKOcJaawwe2SMIx4jGH-48" value="" style="edgeStyle=orthogonalEdgeStyle;rounded=0;orthogonalLoop=1;jettySize=auto;html=1;dashed=1;startArrow=none;startFill=0;endArrow=none;endFill=0;strokeColor=#00331A;strokeWidth=1;" parent="1" edge="1">
          <mxGeometry relative="1" as="geometry">
            <mxPoint x="972.5" y="437" as="sourcePoint" />
            <mxPoint x="891" y="380" as="targetPoint" />
            <Array as="points">
              <mxPoint x="891" y="437" />
            </Array>
          </mxGeometry>
        </mxCell>
        <mxCell id="NwKOcJaawwe2SMIx4jGH-49" value="database.php" style="text;html=1;align=center;verticalAlign=middle;whiteSpace=wrap;rounded=0;fontStyle=1;fontSize=10;fontColor=#A680B8;" parent="1" vertex="1">
          <mxGeometry x="975" y="444.5" width="65" height="20.5" as="geometry" />
        </mxCell>
        <mxCell id="NwKOcJaawwe2SMIx4jGH-50" value="" style="edgeStyle=orthogonalEdgeStyle;rounded=0;orthogonalLoop=1;jettySize=auto;html=1;dashed=1;startArrow=none;startFill=0;endArrow=none;endFill=0;strokeColor=#00331A;strokeWidth=1;" parent="1" edge="1">
          <mxGeometry relative="1" as="geometry">
            <mxPoint x="972.5" y="457" as="sourcePoint" />
            <mxPoint x="891" y="435" as="targetPoint" />
            <Array as="points">
              <mxPoint x="891" y="457" />
            </Array>
          </mxGeometry>
        </mxCell>
        <mxCell id="NwKOcJaawwe2SMIx4jGH-55" value="" style="edgeStyle=orthogonalEdgeStyle;rounded=0;orthogonalLoop=1;jettySize=auto;html=1;dashed=1;startArrow=classic;startFill=1;endArrow=none;endFill=0;strokeColor=#FF0000;strokeWidth=1;exitX=0;exitY=0.5;exitDx=0;exitDy=0;fillColor=#e51400;" parent="1" edge="1">
          <mxGeometry relative="1" as="geometry">
            <mxPoint x="964" y="414.75" as="sourcePoint" />
            <mxPoint x="570" y="415" as="targetPoint" />
            <Array as="points">
              <mxPoint x="580" y="415" />
              <mxPoint x="580" y="415" />
            </Array>
          </mxGeometry>
        </mxCell>
        <mxCell id="NwKOcJaawwe2SMIx4jGH-56" value="" style="edgeStyle=orthogonalEdgeStyle;rounded=0;orthogonalLoop=1;jettySize=auto;html=1;dashed=1;startArrow=classic;startFill=1;endArrow=none;endFill=0;strokeColor=#006600;strokeWidth=1;fontColor=#006600;fillColor=#a0522d;" parent="1" target="NwKOcJaawwe2SMIx4jGH-33" edge="1">
          <mxGeometry relative="1" as="geometry">
            <mxPoint x="1021" y="391" as="sourcePoint" />
            <mxPoint x="1059.5" y="415" as="targetPoint" />
            <Array as="points">
              <mxPoint x="1140" y="391" />
              <mxPoint x="1140" y="413" />
            </Array>
          </mxGeometry>
        </mxCell>
        <mxCell id="NwKOcJaawwe2SMIx4jGH-58" value="" style="edgeStyle=orthogonalEdgeStyle;rounded=0;orthogonalLoop=1;jettySize=auto;html=1;dashed=1;startArrow=classic;startFill=1;endArrow=none;endFill=0;strokeColor=#006600;strokeWidth=1;fontColor=#CC6600;fillColor=#a0522d;" parent="1" edge="1">
          <mxGeometry relative="1" as="geometry">
            <mxPoint x="1027" y="436" as="sourcePoint" />
            <mxPoint x="1140" y="410" as="targetPoint" />
            <Array as="points">
              <mxPoint x="1140" y="436" />
            </Array>
          </mxGeometry>
        </mxCell>
        <mxCell id="NwKOcJaawwe2SMIx4jGH-59" value="" style="edgeStyle=orthogonalEdgeStyle;rounded=0;orthogonalLoop=1;jettySize=auto;html=1;dashed=1;startArrow=classic;startFill=1;endArrow=none;endFill=0;strokeColor=#006600;strokeWidth=1;fillColor=#a0522d;" parent="1" edge="1">
          <mxGeometry relative="1" as="geometry">
            <mxPoint x="1039" y="457" as="sourcePoint" />
            <mxPoint x="1140" y="410" as="targetPoint" />
            <Array as="points">
              <mxPoint x="1140" y="457" />
            </Array>
          </mxGeometry>
        </mxCell>
        <mxCell id="JAKMuyajma6vQaw-Ln5v-3" value=".htaccess" style="text;html=1;align=center;verticalAlign=middle;whiteSpace=wrap;rounded=0;fontStyle=1;fontColor=#FF0000;fontSize=10;" parent="1" vertex="1">
          <mxGeometry x="553" y="409.5" width="60" height="30" as="geometry" />
        </mxCell>
        <mxCell id="NwKOcJaawwe2SMIx4jGH-64" value="BackEnd" style="text;html=1;align=center;verticalAlign=middle;resizable=0;points=[];autosize=1;strokeColor=none;fillColor=none;fontSize=11;fontColor=#0000CC;fontStyle=1" parent="1" vertex="1">
          <mxGeometry x="812.5" y="315" width="60" height="20" as="geometry" />
        </mxCell>
        <mxCell id="NwKOcJaawwe2SMIx4jGH-67" value="" style="edgeStyle=orthogonalEdgeStyle;rounded=0;orthogonalLoop=1;jettySize=auto;html=1;dashed=1;startArrow=none;startFill=0;endArrow=classic;endFill=1;strokeColor=#001DBC;strokeWidth=1;fillColor=#0050ef;" parent="1" edge="1">
          <mxGeometry relative="1" as="geometry">
            <mxPoint x="972.5" y="393" as="sourcePoint" />
            <mxPoint x="891" y="410" as="targetPoint" />
            <Array as="points">
              <mxPoint x="891" y="393" />
            </Array>
          </mxGeometry>
        </mxCell>
        <mxCell id="HLYYOfNkcRGqxwp49W54-2" value="" style="edgeStyle=orthogonalEdgeStyle;rounded=0;orthogonalLoop=1;jettySize=auto;html=1;dashed=1;fontSize=11;fontColor=#0000CC;startArrow=none;startFill=0;endArrow=classic;endFill=1;strokeColor=#FF0000;strokeWidth=1;" parent="1" edge="1">
          <mxGeometry relative="1" as="geometry">
            <mxPoint x="563" y="381" as="sourcePoint" />
            <mxPoint x="564" y="420" as="targetPoint" />
            <Array as="points">
              <mxPoint x="563.5" y="398" />
              <mxPoint x="563.5" y="398" />
            </Array>
          </mxGeometry>
        </mxCell>
        <mxCell id="HLYYOfNkcRGqxwp49W54-4" value="" style="edgeStyle=orthogonalEdgeStyle;rounded=0;orthogonalLoop=1;jettySize=auto;html=1;dashed=1;fontSize=11;fontColor=#FF0000;startArrow=none;startFill=0;endArrow=none;endFill=0;strokeColor=#0000CC;strokeWidth=1;" parent="1" edge="1">
          <mxGeometry relative="1" as="geometry">
            <mxPoint x="600" y="410" as="sourcePoint" />
            <mxPoint x="840" y="410" as="targetPoint" />
            <Array as="points">
              <mxPoint x="580" y="410" />
              <mxPoint x="580" y="409" />
            </Array>
          </mxGeometry>
        </mxCell>
        <mxCell id="HLYYOfNkcRGqxwp49W54-5" value="URI" style="text;html=1;align=center;verticalAlign=middle;resizable=0;points=[];autosize=1;strokeColor=none;fillColor=none;fontColor=#0000CC;fontSize=9;fontStyle=1" parent="1" vertex="1">
          <mxGeometry x="852" y="398" width="30" height="20" as="geometry" />
        </mxCell>
        <mxCell id="HLYYOfNkcRGqxwp49W54-6" value="URL" style="text;html=1;align=center;verticalAlign=middle;resizable=0;points=[];autosize=1;strokeColor=none;fillColor=none;fontColor=#FF0000;fontSize=9;fontStyle=1" parent="1" vertex="1">
          <mxGeometry x="671" y="271" width="30" height="20" as="geometry" />
        </mxCell>
        <mxCell id="Ca_ESOKWYwaivZFTIutu-38" value="" style="edgeStyle=orthogonalEdgeStyle;rounded=0;orthogonalLoop=1;jettySize=auto;html=1;fontColor=#0000CC;startArrow=oval;startFill=1;endArrow=classic;endFill=1;strokeColor=#0000CC;strokeWidth=2;entryX=0.425;entryY=0.44;entryDx=0;entryDy=0;entryPerimeter=0;" parent="1" source="bvDFHQpG0MN7TgqZ5CM7-1" target="Ca_ESOKWYwaivZFTIutu-8" edge="1">
          <mxGeometry relative="1" as="geometry" />
        </mxCell>
        <mxCell id="bvDFHQpG0MN7TgqZ5CM7-1" value="controllers" style="text;html=1;align=center;verticalAlign=middle;resizable=0;points=[];autosize=1;strokeColor=none;fillColor=none;fontSize=12;fontColor=#0000CC;fontStyle=1" parent="1" vertex="1">
          <mxGeometry x="913" y="581.75" width="80" height="20" as="geometry" />
        </mxCell>
        <mxCell id="bvDFHQpG0MN7TgqZ5CM7-3" value="" style="edgeStyle=orthogonalEdgeStyle;rounded=0;orthogonalLoop=1;jettySize=auto;html=1;dashed=1;startArrow=none;startFill=0;endArrow=none;endFill=0;strokeColor=#00331A;strokeWidth=1;entryX=0.029;entryY=0.858;entryDx=0;entryDy=0;entryPerimeter=0;" parent="1" source="bvDFHQpG0MN7TgqZ5CM7-2" edge="1">
          <mxGeometry relative="1" as="geometry">
            <mxPoint x="900" y="540" as="sourcePoint" />
            <mxPoint x="859.5" y="375" as="targetPoint" />
            <Array as="points">
              <mxPoint x="842" y="375" />
            </Array>
          </mxGeometry>
        </mxCell>
        <mxCell id="bvDFHQpG0MN7TgqZ5CM7-4" value="" style="edgeStyle=orthogonalEdgeStyle;rounded=0;orthogonalLoop=1;jettySize=auto;html=1;dashed=1;startArrow=none;startFill=0;endArrow=none;endFill=0;strokeColor=#00331A;strokeWidth=1;entryX=0.029;entryY=0.858;entryDx=0;entryDy=0;entryPerimeter=0;" parent="1" source="bvDFHQpG0MN7TgqZ5CM7-6" edge="1">
          <mxGeometry relative="1" as="geometry">
            <mxPoint x="924" y="758" as="sourcePoint" />
            <mxPoint x="859.5" y="593" as="targetPoint" />
            <Array as="points">
              <mxPoint x="842" y="852" />
              <mxPoint x="842" y="593" />
            </Array>
          </mxGeometry>
        </mxCell>
        <mxCell id="bvDFHQpG0MN7TgqZ5CM7-5" value="" style="edgeStyle=orthogonalEdgeStyle;rounded=0;orthogonalLoop=1;jettySize=auto;html=1;dashed=1;startArrow=none;startFill=0;endArrow=none;endFill=0;strokeColor=#00331A;strokeWidth=1;entryX=0.029;entryY=0.858;entryDx=0;entryDy=0;entryPerimeter=0;" parent="1" source="bvDFHQpG0MN7TgqZ5CM7-9" edge="1">
          <mxGeometry relative="1" as="geometry">
            <mxPoint x="940" y="1193" as="sourcePoint" />
            <mxPoint x="858.5" y="850" as="targetPoint" />
            <Array as="points">
              <mxPoint x="940" y="1293" />
              <mxPoint x="940" y="1292" />
              <mxPoint x="841" y="1292" />
              <mxPoint x="841" y="850" />
            </Array>
          </mxGeometry>
        </mxCell>
        <mxCell id="Ca_ESOKWYwaivZFTIutu-37" value="" style="edgeStyle=orthogonalEdgeStyle;rounded=0;orthogonalLoop=1;jettySize=auto;html=1;fontColor=#CC6600;startArrow=classic;startFill=1;endArrow=oval;endFill=1;strokeColor=#0000CC;strokeWidth=2;" parent="1" source="bvDFHQpG0MN7TgqZ5CM7-1" target="NwKOcJaawwe2SMIx4jGH-21" edge="1">
          <mxGeometry relative="1" as="geometry">
            <mxPoint x="1000" y="360" as="targetPoint" />
            <Array as="points">
              <mxPoint x="953" y="550" />
              <mxPoint x="1170" y="550" />
              <mxPoint x="1170" y="360" />
              <mxPoint x="995" y="360" />
            </Array>
          </mxGeometry>
        </mxCell>
        <mxCell id="bvDFHQpG0MN7TgqZ5CM7-6" value="views" style="text;html=1;align=center;verticalAlign=middle;resizable=0;points=[];autosize=1;strokeColor=none;fillColor=none;fontSize=12;fontStyle=1;fontColor=#CC6600;" parent="1" vertex="1">
          <mxGeometry x="931" y="840" width="50" height="20" as="geometry" />
        </mxCell>
        <mxCell id="bvDFHQpG0MN7TgqZ5CM7-7" value="" style="shape=waypoint;sketch=0;fillStyle=solid;size=6;pointerEvents=1;points=[];fillColor=none;resizable=0;rotatable=0;perimeter=centerPerimeter;snapToPoint=1;fontSize=10;" parent="1" vertex="1">
          <mxGeometry x="909.5" y="831" width="40" height="40" as="geometry" />
        </mxCell>
        <mxCell id="bvDFHQpG0MN7TgqZ5CM7-8" value="models" style="text;html=1;align=center;verticalAlign=middle;resizable=0;points=[];autosize=1;strokeColor=none;fillColor=none;fontSize=12;" parent="1" vertex="1">
          <mxGeometry x="944" y="1283" width="50" height="20" as="geometry" />
        </mxCell>
        <mxCell id="bvDFHQpG0MN7TgqZ5CM7-9" value="" style="shape=waypoint;sketch=0;fillStyle=solid;size=6;pointerEvents=1;points=[];fillColor=none;resizable=0;rotatable=0;perimeter=centerPerimeter;snapToPoint=1;fontSize=10;" parent="1" vertex="1">
          <mxGeometry x="926" y="1273" width="40" height="40" as="geometry" />
        </mxCell>
        <mxCell id="bvDFHQpG0MN7TgqZ5CM7-13" value="" style="edgeStyle=orthogonalEdgeStyle;rounded=0;orthogonalLoop=1;jettySize=auto;html=1;dashed=1;startArrow=none;startFill=0;endArrow=none;endFill=0;strokeColor=#00331A;strokeWidth=1;" parent="1" edge="1">
          <mxGeometry relative="1" as="geometry">
            <mxPoint x="940" y="1535" as="sourcePoint" />
            <mxPoint x="860" y="1292" as="targetPoint" />
            <Array as="points">
              <mxPoint x="923" y="1535" />
              <mxPoint x="841" y="1535" />
              <mxPoint x="841" y="1192" />
            </Array>
          </mxGeometry>
        </mxCell>
        <mxCell id="bvDFHQpG0MN7TgqZ5CM7-27" value="" style="edgeStyle=orthogonalEdgeStyle;rounded=0;orthogonalLoop=1;jettySize=auto;html=1;dashed=1;startArrow=none;startFill=0;endArrow=none;endFill=0;strokeColor=#00331A;strokeWidth=1;exitX=0;exitY=0.5;exitDx=0;exitDy=0;" parent="1" source="bvDFHQpG0MN7TgqZ5CM7-28" edge="1">
          <mxGeometry relative="1" as="geometry">
            <mxPoint x="1034" y="631.75" as="sourcePoint" />
            <mxPoint x="946" y="593.75" as="targetPoint" />
            <Array as="points">
              <mxPoint x="946" y="611.75" />
            </Array>
          </mxGeometry>
        </mxCell>
        <mxCell id="bvDFHQpG0MN7TgqZ5CM7-28" value="Home.php" style="text;html=1;align=center;verticalAlign=middle;whiteSpace=wrap;rounded=0;fontStyle=1;fontSize=10;fontColor=#0000CC;" parent="1" vertex="1">
          <mxGeometry x="998" y="601.75" width="65" height="20.5" as="geometry" />
        </mxCell>
        <mxCell id="bvDFHQpG0MN7TgqZ5CM7-32" value="URI" style="text;html=1;align=center;verticalAlign=middle;resizable=0;points=[];autosize=1;strokeColor=none;fillColor=none;fontColor=#0000CC;fontSize=9;fontStyle=1" parent="1" vertex="1">
          <mxGeometry x="1057.5" y="342" width="30" height="20" as="geometry" />
        </mxCell>
        <mxCell id="bvDFHQpG0MN7TgqZ5CM7-33" value="" style="edgeStyle=orthogonalEdgeStyle;rounded=0;orthogonalLoop=1;jettySize=auto;html=1;dashed=1;startArrow=none;startFill=0;endArrow=none;endFill=0;strokeColor=#00331A;strokeWidth=1;" parent="1" edge="1">
          <mxGeometry relative="1" as="geometry">
            <mxPoint x="960" y="478" as="sourcePoint" />
            <mxPoint x="891" y="456" as="targetPoint" />
            <Array as="points">
              <mxPoint x="891" y="478" />
            </Array>
          </mxGeometry>
        </mxCell>
        <mxCell id="Ca_ESOKWYwaivZFTIutu-35" value="" style="edgeStyle=orthogonalEdgeStyle;rounded=0;orthogonalLoop=1;jettySize=auto;html=1;fontColor=#CC6600;startArrow=oval;startFill=1;endArrow=classic;endFill=1;strokeColor=#CC6600;strokeWidth=2;" parent="1" source="bvDFHQpG0MN7TgqZ5CM7-34" target="bvDFHQpG0MN7TgqZ5CM7-6" edge="1">
          <mxGeometry relative="1" as="geometry">
            <Array as="points">
              <mxPoint x="1002" y="530" />
              <mxPoint x="880" y="530" />
              <mxPoint x="880" y="770" />
              <mxPoint x="950" y="770" />
            </Array>
            <mxPoint x="810" y="560" as="targetPoint" />
          </mxGeometry>
        </mxCell>
        <mxCell id="bvDFHQpG0MN7TgqZ5CM7-34" value="controller.php" style="text;html=1;align=center;verticalAlign=middle;whiteSpace=wrap;rounded=0;fontStyle=1;fontSize=10;fontColor=#CC6600;" parent="1" vertex="1">
          <mxGeometry x="969" y="467.5" width="65" height="20.5" as="geometry" />
        </mxCell>
        <mxCell id="bvDFHQpG0MN7TgqZ5CM7-2" value="" style="shape=waypoint;sketch=0;fillStyle=solid;size=6;pointerEvents=1;points=[];fillColor=none;resizable=0;rotatable=0;perimeter=centerPerimeter;snapToPoint=1;fontSize=10;" parent="1" vertex="1">
          <mxGeometry x="894" y="572" width="40" height="40" as="geometry" />
        </mxCell>
        <mxCell id="bvDFHQpG0MN7TgqZ5CM7-36" value="" style="edgeStyle=orthogonalEdgeStyle;rounded=0;orthogonalLoop=1;jettySize=auto;html=1;dashed=1;startArrow=none;startFill=0;endArrow=none;endFill=0;strokeColor=#00331A;strokeWidth=1;" parent="1" edge="1">
          <mxGeometry relative="1" as="geometry">
            <mxPoint x="900" y="592" as="sourcePoint" />
            <mxPoint x="920" y="592" as="targetPoint" />
            <Array as="points">
              <mxPoint x="924" y="592" />
              <mxPoint x="842" y="592" />
            </Array>
          </mxGeometry>
        </mxCell>
        <mxCell id="bvDFHQpG0MN7TgqZ5CM7-37" value="" style="edgeStyle=orthogonalEdgeStyle;rounded=0;orthogonalLoop=1;jettySize=auto;html=1;dashed=1;startArrow=classic;startFill=1;endArrow=none;endFill=0;strokeColor=#006600;strokeWidth=1;fillColor=#a0522d;" parent="1" edge="1">
          <mxGeometry relative="1" as="geometry">
            <mxPoint x="1040" y="476" as="sourcePoint" />
            <mxPoint x="1140" y="420" as="targetPoint" />
            <Array as="points">
              <mxPoint x="1140" y="476" />
            </Array>
          </mxGeometry>
        </mxCell>
        <mxCell id="bvDFHQpG0MN7TgqZ5CM7-38" value="" style="edgeStyle=orthogonalEdgeStyle;rounded=0;orthogonalLoop=1;jettySize=auto;html=1;dashed=1;startArrow=none;startFill=0;endArrow=none;endFill=0;strokeColor=#00331A;strokeWidth=1;exitX=0;exitY=0.5;exitDx=0;exitDy=0;" parent="1" edge="1">
          <mxGeometry relative="1" as="geometry">
            <mxPoint x="1000" y="628" as="sourcePoint" />
            <mxPoint x="946" y="609.75" as="targetPoint" />
            <Array as="points">
              <mxPoint x="946" y="627.75" />
            </Array>
          </mxGeometry>
        </mxCell>
        <mxCell id="bvDFHQpG0MN7TgqZ5CM7-39" value="Estudante.php" style="text;html=1;align=center;verticalAlign=middle;whiteSpace=wrap;rounded=0;fontStyle=1;fontSize=10;fontColor=#0000CC;" parent="1" vertex="1">
          <mxGeometry x="1008" y="616.75" width="65" height="20.5" as="geometry" />
        </mxCell>
        <mxCell id="Ca_ESOKWYwaivZFTIutu-39" value="" style="edgeStyle=orthogonalEdgeStyle;rounded=0;orthogonalLoop=1;jettySize=auto;html=1;fontColor=#CC6600;startArrow=oval;startFill=1;endArrow=classic;endFill=1;strokeColor=#0000CC;strokeWidth=2;entryX=0.358;entryY=0.54;entryDx=0;entryDy=0;entryPerimeter=0;" parent="1" source="Ca_ESOKWYwaivZFTIutu-7" target="Ca_ESOKWYwaivZFTIutu-16" edge="1">
          <mxGeometry relative="1" as="geometry" />
        </mxCell>
        <mxCell id="Ca_ESOKWYwaivZFTIutu-7" value="method" style="text;html=1;align=center;verticalAlign=middle;resizable=0;points=[];autosize=1;strokeColor=none;fillColor=none;fontSize=12;fontStyle=1;fontColor=#0000CC;" parent="1" vertex="1">
          <mxGeometry x="1125" y="581.75" width="60" height="20" as="geometry" />
        </mxCell>
        <mxCell id="Ca_ESOKWYwaivZFTIutu-8" value="" style="shape=waypoint;sketch=0;fillStyle=solid;size=6;pointerEvents=1;points=[];fillColor=none;resizable=0;rotatable=0;perimeter=centerPerimeter;snapToPoint=1;fontSize=10;" parent="1" vertex="1">
          <mxGeometry x="1109" y="571.75" width="40" height="40" as="geometry" />
        </mxCell>
        <mxCell id="Ca_ESOKWYwaivZFTIutu-15" value="params" style="text;html=1;align=center;verticalAlign=middle;resizable=0;points=[];autosize=1;strokeColor=none;fillColor=none;fontSize=12;fontStyle=1;fontColor=#0000CC;" parent="1" vertex="1">
          <mxGeometry x="1316" y="579.75" width="60" height="20" as="geometry" />
        </mxCell>
        <mxCell id="Ca_ESOKWYwaivZFTIutu-16" value="" style="shape=waypoint;sketch=0;fillStyle=solid;size=6;pointerEvents=1;points=[];fillColor=none;resizable=0;rotatable=0;perimeter=centerPerimeter;snapToPoint=1;fontSize=10;" parent="1" vertex="1">
          <mxGeometry x="1300" y="571.75" width="40" height="40" as="geometry" />
        </mxCell>
        <mxCell id="Ca_ESOKWYwaivZFTIutu-20" value="index ()" style="text;html=1;align=center;verticalAlign=middle;whiteSpace=wrap;rounded=0;fontStyle=1;fontSize=10;fontColor=#0000CC;" parent="1" vertex="1">
          <mxGeometry x="1193" y="598.75" width="65" height="20.5" as="geometry" />
        </mxCell>
        <mxCell id="Ca_ESOKWYwaivZFTIutu-21" value="" style="edgeStyle=orthogonalEdgeStyle;rounded=0;orthogonalLoop=1;jettySize=auto;html=1;dashed=1;startArrow=none;startFill=0;endArrow=none;endFill=0;strokeColor=#00331A;strokeWidth=1;exitX=0;exitY=0.5;exitDx=0;exitDy=0;" parent="1" edge="1">
          <mxGeometry relative="1" as="geometry">
            <mxPoint x="1204" y="610" as="sourcePoint" />
            <mxPoint x="1152" y="591.75" as="targetPoint" />
            <Array as="points">
              <mxPoint x="1152" y="609.75" />
            </Array>
          </mxGeometry>
        </mxCell>
        <mxCell id="Ca_ESOKWYwaivZFTIutu-22" value="index ($id = &#39; &#39;)" style="text;html=1;align=center;verticalAlign=middle;whiteSpace=wrap;rounded=0;fontStyle=1;fontSize=10;fontColor=#0000CC;" parent="1" vertex="1">
          <mxGeometry x="1376" y="602.75" width="83" height="20.5" as="geometry" />
        </mxCell>
        <mxCell id="Ca_ESOKWYwaivZFTIutu-23" value="" style="edgeStyle=orthogonalEdgeStyle;rounded=0;orthogonalLoop=1;jettySize=auto;html=1;dashed=1;startArrow=none;startFill=0;endArrow=none;endFill=0;strokeColor=#00331A;strokeWidth=1;" parent="1" edge="1">
          <mxGeometry relative="1" as="geometry">
            <mxPoint x="1380" y="614" as="sourcePoint" />
            <mxPoint x="1339" y="595.75" as="targetPoint" />
            <Array as="points">
              <mxPoint x="1339" y="613.75" />
            </Array>
          </mxGeometry>
        </mxCell>
        <mxCell id="Ca_ESOKWYwaivZFTIutu-24" value="&lt;font color=&quot;#ff0000&quot;&gt;http://acelnet.co.ao&lt;/font&gt;/&lt;font color=&quot;#0000cc&quot;&gt;class/method/params&lt;/font&gt;" style="text;html=1;align=center;verticalAlign=middle;resizable=0;points=[];autosize=1;strokeColor=none;fillColor=none;fontColor=#CC6600;fontStyle=1" parent="1" vertex="1">
          <mxGeometry x="813.5" y="274" width="250" height="20" as="geometry" />
        </mxCell>
        <mxCell id="Ca_ESOKWYwaivZFTIutu-27" value="" style="edgeStyle=orthogonalEdgeStyle;rounded=0;orthogonalLoop=1;jettySize=auto;html=1;dashed=1;startArrow=classic;startFill=1;endArrow=classic;endFill=1;strokeColor=#001DBC;strokeWidth=1;fillColor=#0050ef;" parent="1" edge="1">
          <mxGeometry relative="1" as="geometry">
            <mxPoint x="1057.5" y="274" as="sourcePoint" />
            <mxPoint x="923.5" y="274" as="targetPoint" />
            <Array as="points">
              <mxPoint x="923.5" y="257" />
            </Array>
          </mxGeometry>
        </mxCell>
        <mxCell id="Ca_ESOKWYwaivZFTIutu-28" value="" style="edgeStyle=orthogonalEdgeStyle;rounded=0;orthogonalLoop=1;jettySize=auto;html=1;dashed=1;startArrow=classic;startFill=1;endArrow=classic;endFill=1;strokeColor=#FF0000;strokeWidth=1;fillColor=#a20025;fontColor=#FF0000;" parent="1" edge="1">
          <mxGeometry relative="1" as="geometry">
            <mxPoint x="1066.5" y="280" as="sourcePoint" />
            <mxPoint x="812.5" y="280" as="targetPoint" />
            <Array as="points">
              <mxPoint x="1066.5" y="247" />
              <mxPoint x="1066.5" y="230" />
              <mxPoint x="812.5" y="230" />
            </Array>
          </mxGeometry>
        </mxCell>
        <mxCell id="Ca_ESOKWYwaivZFTIutu-29" value="URI" style="text;html=1;align=center;verticalAlign=middle;resizable=0;points=[];autosize=1;strokeColor=none;fillColor=none;fontColor=#0000CC;fontSize=9;fontStyle=1" parent="1" vertex="1">
          <mxGeometry x="973" y="238" width="30" height="20" as="geometry" />
        </mxCell>
        <mxCell id="Ca_ESOKWYwaivZFTIutu-30" value="URL" style="text;html=1;align=center;verticalAlign=middle;resizable=0;points=[];autosize=1;strokeColor=none;fillColor=none;fontColor=#FF0000;fontSize=9;fontStyle=1" parent="1" vertex="1">
          <mxGeometry x="914" y="211" width="30" height="20" as="geometry" />
        </mxCell>
        <mxCell id="Ca_ESOKWYwaivZFTIutu-31" value="URL" style="text;html=1;align=center;verticalAlign=middle;resizable=0;points=[];autosize=1;strokeColor=none;fillColor=none;fontColor=#FF0000;fontSize=9;fontStyle=1" parent="1" vertex="1">
          <mxGeometry x="490" y="355" width="30" height="20" as="geometry" />
        </mxCell>
        <mxCell id="Ca_ESOKWYwaivZFTIutu-32" value="" style="edgeStyle=orthogonalEdgeStyle;rounded=0;orthogonalLoop=1;jettySize=auto;html=1;dashed=1;startArrow=none;startFill=0;endArrow=none;endFill=0;strokeColor=#00331A;strokeWidth=1;exitX=0;exitY=0.5;exitDx=0;exitDy=0;" parent="1" edge="1">
          <mxGeometry relative="1" as="geometry">
            <mxPoint x="1008" y="870" as="sourcePoint" />
            <mxPoint x="956" y="851.75" as="targetPoint" />
            <Array as="points">
              <mxPoint x="956" y="869.75" />
            </Array>
          </mxGeometry>
        </mxCell>
        <mxCell id="Ca_ESOKWYwaivZFTIutu-33" value="home.view..php" style="text;html=1;align=center;verticalAlign=middle;whiteSpace=wrap;rounded=0;fontStyle=1;fontSize=10;fontColor=#CC6600;" parent="1" vertex="1">
          <mxGeometry x="998" y="860.75" width="65" height="20.5" as="geometry" />
        </mxCell>
        <mxCell id="EJInJD_8tcGKx5hPsD_K-2" value=".VIEW.PHP" style="text;html=1;align=center;verticalAlign=middle;resizable=0;points=[];autosize=1;strokeColor=none;fillColor=none;fontColor=#CC6600;fontSize=9;fontStyle=1" parent="1" vertex="1">
          <mxGeometry x="884" y="803" width="60" height="20" as="geometry" />
        </mxCell>
        <mxCell id="EJInJD_8tcGKx5hPsD_K-4" value="request" style="text;html=1;align=center;verticalAlign=middle;resizable=0;points=[];autosize=1;strokeColor=none;fillColor=none;fontColor=#FF0000;fontStyle=1" parent="1" vertex="1">
          <mxGeometry x="770" y="424.5" width="60" height="20" as="geometry" />
        </mxCell>
        <mxCell id="EJInJD_8tcGKx5hPsD_K-7" value="" style="sketch=0;pointerEvents=1;shadow=0;dashed=0;html=1;strokeColor=none;labelPosition=center;verticalLabelPosition=bottom;verticalAlign=top;align=center;fillColor=#FF0000;shape=mxgraph.mscae.intune.intune_email_profiles;fontColor=#FF0000;" parent="1" vertex="1">
          <mxGeometry x="750" y="421.5" width="30" height="37" as="geometry" />
        </mxCell>
        <mxCell id="EJInJD_8tcGKx5hPsD_K-8" value="request" style="text;html=1;align=center;verticalAlign=middle;resizable=0;points=[];autosize=1;strokeColor=none;fillColor=none;fontColor=#0000CC;fontStyle=1" parent="1" vertex="1">
          <mxGeometry x="662" y="369.5" width="60" height="20" as="geometry" />
        </mxCell>
        <mxCell id="EJInJD_8tcGKx5hPsD_K-9" value="" style="sketch=0;pointerEvents=1;shadow=0;dashed=0;html=1;strokeColor=none;labelPosition=center;verticalLabelPosition=bottom;verticalAlign=top;align=center;fillColor=#0000CC;shape=mxgraph.mscae.intune.intune_email_profiles;fontColor=#0000CC;" parent="1" vertex="1">
          <mxGeometry x="642" y="366.5" width="30" height="37" as="geometry" />
        </mxCell>
        <mxCell id="EJInJD_8tcGKx5hPsD_K-11" value="" style="endArrow=classic;html=1;rounded=0;fontColor=#0000CC;strokeColor=#FF0000;" parent="1" edge="1">
          <mxGeometry width="50" height="50" relative="1" as="geometry">
            <mxPoint x="615" y="430" as="sourcePoint" />
            <mxPoint x="655" y="430" as="targetPoint" />
          </mxGeometry>
        </mxCell>
        <mxCell id="EJInJD_8tcGKx5hPsD_K-12" value="" style="endArrow=classic;html=1;rounded=0;fontColor=#0000CC;strokeColor=#FF0000;" parent="1" edge="1">
          <mxGeometry width="50" height="50" relative="1" as="geometry">
            <mxPoint x="645" y="441" as="sourcePoint" />
            <mxPoint x="685" y="441" as="targetPoint" />
          </mxGeometry>
        </mxCell>
        <mxCell id="EJInJD_8tcGKx5hPsD_K-13" value="" style="endArrow=classic;html=1;rounded=0;fontColor=#0000CC;strokeColor=#FF0000;" parent="1" edge="1">
          <mxGeometry width="50" height="50" relative="1" as="geometry">
            <mxPoint x="674" y="431" as="sourcePoint" />
            <mxPoint x="714" y="431" as="targetPoint" />
          </mxGeometry>
        </mxCell>
        <mxCell id="EJInJD_8tcGKx5hPsD_K-14" value="" style="endArrow=classic;html=1;rounded=0;fontColor=#0000CC;strokeColor=#FF0000;" parent="1" edge="1">
          <mxGeometry width="50" height="50" relative="1" as="geometry">
            <mxPoint x="703" y="441" as="sourcePoint" />
            <mxPoint x="743" y="441" as="targetPoint" />
          </mxGeometry>
        </mxCell>
        <mxCell id="EJInJD_8tcGKx5hPsD_K-15" value="" style="endArrow=none;html=1;rounded=0;fontColor=#0000CC;strokeColor=#0000CC;endFill=0;startArrow=classic;startFill=1;" parent="1" edge="1">
          <mxGeometry width="50" height="50" relative="1" as="geometry">
            <mxPoint x="721" y="391" as="sourcePoint" />
            <mxPoint x="761" y="391" as="targetPoint" />
          </mxGeometry>
        </mxCell>
        <mxCell id="EJInJD_8tcGKx5hPsD_K-16" value="" style="endArrow=none;html=1;rounded=0;fontColor=#0000CC;strokeColor=#0000CC;endFill=0;startArrow=classic;startFill=1;" parent="1" edge="1">
          <mxGeometry width="50" height="50" relative="1" as="geometry">
            <mxPoint x="753" y="402" as="sourcePoint" />
            <mxPoint x="793" y="402" as="targetPoint" />
          </mxGeometry>
        </mxCell>
        <mxCell id="EJInJD_8tcGKx5hPsD_K-17" value="" style="endArrow=none;html=1;rounded=0;fontColor=#0000CC;strokeColor=#0000CC;endFill=0;startArrow=classic;startFill=1;" parent="1" edge="1">
          <mxGeometry width="50" height="50" relative="1" as="geometry">
            <mxPoint x="781" y="392" as="sourcePoint" />
            <mxPoint x="821" y="392" as="targetPoint" />
          </mxGeometry>
        </mxCell>
        <mxCell id="EJInJD_8tcGKx5hPsD_K-18" value="" style="endArrow=none;html=1;rounded=0;fontColor=#0000CC;strokeColor=#0000CC;endFill=0;startArrow=classic;startFill=1;" parent="1" edge="1">
          <mxGeometry width="50" height="50" relative="1" as="geometry">
            <mxPoint x="685" y="401" as="sourcePoint" />
            <mxPoint x="725" y="401" as="targetPoint" />
          </mxGeometry>
        </mxCell>
        <mxCell id="EJInJD_8tcGKx5hPsD_K-19" value="estudante.view..php" style="text;html=1;align=center;verticalAlign=middle;whiteSpace=wrap;rounded=0;fontStyle=1;fontSize=10;fontColor=#CC6600;" parent="1" vertex="1">
          <mxGeometry x="1008" y="877.75" width="65" height="20.5" as="geometry" />
        </mxCell>
        <mxCell id="EJInJD_8tcGKx5hPsD_K-20" value="" style="edgeStyle=orthogonalEdgeStyle;rounded=0;orthogonalLoop=1;jettySize=auto;html=1;dashed=1;startArrow=none;startFill=0;endArrow=none;endFill=0;strokeColor=#00331A;strokeWidth=1;" parent="1" edge="1">
          <mxGeometry relative="1" as="geometry">
            <mxPoint x="990" y="889" as="sourcePoint" />
            <mxPoint x="955" y="870.75" as="targetPoint" />
            <Array as="points">
              <mxPoint x="955" y="888.75" />
            </Array>
          </mxGeometry>
        </mxCell>
        <mxCell id="EJInJD_8tcGKx5hPsD_K-21" value="IN" style="text;html=1;align=center;verticalAlign=middle;resizable=0;points=[];autosize=1;strokeColor=none;fillColor=none;fontColor=#006600;fontStyle=1;fontSize=10;" parent="1" vertex="1">
          <mxGeometry x="1085" y="417.5" width="30" height="20" as="geometry" />
        </mxCell>
        <mxCell id="EJInJD_8tcGKx5hPsD_K-22" value="IN" style="text;html=1;align=center;verticalAlign=middle;resizable=0;points=[];autosize=1;strokeColor=none;fillColor=none;fontColor=#006600;fontStyle=1;fontSize=10;" parent="1" vertex="1">
          <mxGeometry x="1086" y="439.5" width="30" height="20" as="geometry" />
        </mxCell>
        <mxCell id="EJInJD_8tcGKx5hPsD_K-23" value="IN" style="text;html=1;align=center;verticalAlign=middle;resizable=0;points=[];autosize=1;strokeColor=none;fillColor=none;fontColor=#006600;fontStyle=1;fontSize=10;" parent="1" vertex="1">
          <mxGeometry x="1086" y="458.5" width="30" height="20" as="geometry" />
        </mxCell>
        <mxCell id="EJInJD_8tcGKx5hPsD_K-24" value="IN" style="text;html=1;align=center;verticalAlign=middle;resizable=0;points=[];autosize=1;strokeColor=none;fillColor=none;fontColor=#006600;fontStyle=1;fontSize=10;" parent="1" vertex="1">
          <mxGeometry x="1084" y="374.5" width="30" height="20" as="geometry" />
        </mxCell>
        <mxCell id="EJInJD_8tcGKx5hPsD_K-25" value="" style="edgeStyle=orthogonalEdgeStyle;rounded=0;orthogonalLoop=1;jettySize=auto;html=1;dashed=1;startArrow=classic;startFill=1;endArrow=none;endFill=0;strokeColor=#0000CC;strokeWidth=1;fontColor=#006600;fillColor=#a0522d;" parent="1" edge="1">
          <mxGeometry relative="1" as="geometry">
            <mxPoint x="1056" y="611" as="sourcePoint" />
            <mxPoint x="1070" y="872" as="targetPoint" />
            <Array as="points">
              <mxPoint x="1119" y="611" />
              <mxPoint x="1119" y="872" />
              <mxPoint x="1079" y="872" />
            </Array>
          </mxGeometry>
        </mxCell>
        <mxCell id="EJInJD_8tcGKx5hPsD_K-26" value="IN" style="text;html=1;align=center;verticalAlign=middle;resizable=0;points=[];autosize=1;strokeColor=none;fillColor=none;fontColor=#0000CC;fontStyle=1;fontSize=10;" parent="1" vertex="1">
          <mxGeometry x="1095" y="682" width="30" height="20" as="geometry" />
        </mxCell>
        <mxCell id="EJInJD_8tcGKx5hPsD_K-27" value="" style="edgeStyle=orthogonalEdgeStyle;rounded=0;orthogonalLoop=1;jettySize=auto;html=1;dashed=1;startArrow=classic;startFill=1;endArrow=none;endFill=0;strokeColor=#0000CC;strokeWidth=1;fontColor=#006600;fillColor=#a0522d;" parent="1" edge="1">
          <mxGeometry relative="1" as="geometry">
            <mxPoint x="1080" y="627" as="sourcePoint" />
            <mxPoint x="1090" y="892" as="targetPoint" />
            <Array as="points">
              <mxPoint x="1100" y="627" />
              <mxPoint x="1100" y="892" />
            </Array>
          </mxGeometry>
        </mxCell>
        <mxCell id="EJInJD_8tcGKx5hPsD_K-28" value="view ()" style="text;html=1;align=center;verticalAlign=middle;whiteSpace=wrap;rounded=0;fontStyle=1;fontSize=10;fontColor=#CC6600;" parent="1" vertex="1">
          <mxGeometry x="1194" y="617.75" width="65" height="20.5" as="geometry" />
        </mxCell>
        <mxCell id="EJInJD_8tcGKx5hPsD_K-29" value="" style="edgeStyle=orthogonalEdgeStyle;rounded=0;orthogonalLoop=1;jettySize=auto;html=1;dashed=1;startArrow=none;startFill=0;endArrow=none;endFill=0;strokeColor=#00331A;strokeWidth=1;exitX=0;exitY=0.5;exitDx=0;exitDy=0;" parent="1" edge="1">
          <mxGeometry relative="1" as="geometry">
            <mxPoint x="1204" y="629" as="sourcePoint" />
            <mxPoint x="1152" y="610.75" as="targetPoint" />
            <Array as="points">
              <mxPoint x="1152" y="628.75" />
            </Array>
          </mxGeometry>
        </mxCell>
        <mxCell id="EJInJD_8tcGKx5hPsD_K-30" value="view ($view, $data = array ())" style="text;html=1;align=center;verticalAlign=middle;whiteSpace=wrap;rounded=0;fontStyle=1;fontSize=10;fontColor=#0000CC;" parent="1" vertex="1">
          <mxGeometry x="1376" y="621.75" width="153" height="20.5" as="geometry" />
        </mxCell>
        <mxCell id="EJInJD_8tcGKx5hPsD_K-31" value="" style="edgeStyle=orthogonalEdgeStyle;rounded=0;orthogonalLoop=1;jettySize=auto;html=1;dashed=1;startArrow=none;startFill=0;endArrow=none;endFill=0;strokeColor=#00331A;strokeWidth=1;" parent="1" edge="1">
          <mxGeometry relative="1" as="geometry">
            <mxPoint x="1380" y="633" as="sourcePoint" />
            <mxPoint x="1339" y="614.75" as="targetPoint" />
            <Array as="points">
              <mxPoint x="1339" y="632.75" />
            </Array>
          </mxGeometry>
        </mxCell>
        <mxCell id="EJInJD_8tcGKx5hPsD_K-32" value="" style="edgeStyle=orthogonalEdgeStyle;rounded=0;orthogonalLoop=1;jettySize=auto;html=1;dashed=1;startArrow=none;startFill=0;endArrow=classic;endFill=1;strokeColor=#CC6600;strokeWidth=1;fillColor=#a0522d;fontColor=#CC6600;" parent="1" edge="1">
          <mxGeometry relative="1" as="geometry">
            <mxPoint x="1244" y="628" as="sourcePoint" />
            <mxPoint x="1013" y="487" as="targetPoint" />
            <Array as="points">
              <mxPoint x="1244" y="630" />
              <mxPoint x="1264" y="630" />
              <mxPoint x="1264" y="499" />
              <mxPoint x="1013" y="499" />
            </Array>
          </mxGeometry>
        </mxCell>
        <mxCell id="EJInJD_8tcGKx5hPsD_K-34" value="IN" style="text;html=1;align=center;verticalAlign=middle;resizable=0;points=[];autosize=1;strokeColor=none;fillColor=none;fontColor=#CC6600;fontStyle=1;fontSize=10;" parent="1" vertex="1">
          <mxGeometry x="1232" y="480.5" width="30" height="20" as="geometry" />
        </mxCell>
        <mxCell id="EJInJD_8tcGKx5hPsD_K-35" value="" style="edgeStyle=orthogonalEdgeStyle;rounded=0;orthogonalLoop=1;jettySize=auto;html=1;dashed=1;startArrow=none;startFill=0;endArrow=none;endFill=0;strokeColor=#00331A;strokeWidth=1;" parent="1" source="EJInJD_8tcGKx5hPsD_K-36" edge="1">
          <mxGeometry relative="1" as="geometry">
            <mxPoint x="590" y="490" as="sourcePoint" />
            <mxPoint x="635" y="371" as="targetPoint" />
            <Array as="points">
              <mxPoint x="616" y="371" />
            </Array>
          </mxGeometry>
        </mxCell>
        <mxCell id="EJInJD_8tcGKx5hPsD_K-36" value="" style="shape=waypoint;sketch=0;fillStyle=solid;size=6;pointerEvents=1;points=[];fillColor=none;resizable=0;rotatable=0;perimeter=centerPerimeter;snapToPoint=1;fontSize=10;fontStyle=1" parent="1" vertex="1">
          <mxGeometry x="624" y="489.75" width="40" height="40" as="geometry" />
        </mxCell>
        <mxCell id="EJInJD_8tcGKx5hPsD_K-39" value="assets" style="text;html=1;align=center;verticalAlign=middle;resizable=0;points=[];autosize=1;strokeColor=none;fillColor=none;fontSize=12;" parent="1" vertex="1">
          <mxGeometry x="642" y="500.5" width="50" height="20" as="geometry" />
        </mxCell>
        <mxCell id="EJInJD_8tcGKx5hPsD_K-40" value="" style="edgeStyle=orthogonalEdgeStyle;rounded=0;orthogonalLoop=1;jettySize=auto;html=1;dashed=1;startArrow=none;startFill=0;endArrow=none;endFill=0;strokeColor=#00331A;strokeWidth=1;" parent="1" edge="1">
          <mxGeometry relative="1" as="geometry">
            <mxPoint x="640" y="540" as="sourcePoint" />
            <mxPoint x="636" y="510" as="targetPoint" />
            <Array as="points">
              <mxPoint x="636" y="540" />
              <mxPoint x="616" y="540" />
              <mxPoint x="616" y="510" />
            </Array>
          </mxGeometry>
        </mxCell>
        <mxCell id="EJInJD_8tcGKx5hPsD_K-44" value="" style="edgeStyle=orthogonalEdgeStyle;rounded=0;orthogonalLoop=1;jettySize=auto;html=1;dashed=1;startArrow=none;startFill=0;endArrow=none;endFill=0;strokeColor=#00331A;strokeWidth=1;" parent="1" edge="1">
          <mxGeometry relative="1" as="geometry">
            <mxPoint x="640" y="557" as="sourcePoint" />
            <mxPoint x="615" y="543" as="targetPoint" />
            <Array as="points">
              <mxPoint x="615" y="557" />
            </Array>
          </mxGeometry>
        </mxCell>
        <mxCell id="EJInJD_8tcGKx5hPsD_K-45" value="" style="edgeStyle=orthogonalEdgeStyle;rounded=0;orthogonalLoop=1;jettySize=auto;html=1;dashed=1;startArrow=none;startFill=0;endArrow=none;endFill=0;strokeColor=#00331A;strokeWidth=1;" parent="1" edge="1">
          <mxGeometry relative="1" as="geometry">
            <mxPoint x="640" y="572" as="sourcePoint" />
            <mxPoint x="615" y="558" as="targetPoint" />
            <Array as="points">
              <mxPoint x="615" y="572" />
            </Array>
          </mxGeometry>
        </mxCell>
        <mxCell id="STZjw_1e0-3T1apY85C1-3" value="" style="edgeStyle=orthogonalEdgeStyle;rounded=0;orthogonalLoop=1;jettySize=auto;html=1;dashed=1;startArrow=none;startFill=0;endArrow=none;endFill=0;strokeColor=#00331A;strokeWidth=1;" parent="1" edge="1">
          <mxGeometry relative="1" as="geometry">
            <mxPoint x="638" y="602" as="sourcePoint" />
            <mxPoint x="634" y="572" as="targetPoint" />
            <Array as="points">
              <mxPoint x="634" y="602" />
              <mxPoint x="614" y="602" />
              <mxPoint x="614" y="572" />
            </Array>
          </mxGeometry>
        </mxCell>
        <mxCell id="STZjw_1e0-3T1apY85C1-4" value="" style="shape=waypoint;sketch=0;fillStyle=solid;size=6;pointerEvents=1;points=[];fillColor=none;resizable=0;rotatable=0;perimeter=centerPerimeter;snapToPoint=1;fontSize=10;fontStyle=1" parent="1" vertex="1">
          <mxGeometry x="622" y="582.75" width="40" height="40" as="geometry" />
        </mxCell>
        <mxCell id="STZjw_1e0-3T1apY85C1-5" value="css" style="text;html=1;align=center;verticalAlign=middle;resizable=0;points=[];autosize=1;strokeColor=none;fillColor=none;fontSize=12;" parent="1" vertex="1">
          <mxGeometry x="647" y="591.75" width="30" height="20" as="geometry" />
        </mxCell>
        <mxCell id="T9cSecS2KiQrXJoiudAQ-1" value="" style="edgeStyle=orthogonalEdgeStyle;rounded=0;orthogonalLoop=1;jettySize=auto;html=1;startArrow=none;startFill=0;endArrow=classic;endFill=1;strokeColor=#CC6600;strokeWidth=2;" parent="1" target="bvDFHQpG0MN7TgqZ5CM7-7" edge="1">
          <mxGeometry relative="1" as="geometry">
            <mxPoint x="1050" y="1152" as="sourcePoint" />
            <mxPoint x="955" y="962" as="targetPoint" />
            <Array as="points">
              <mxPoint x="930" y="1152" />
              <mxPoint x="930" y="962" />
            </Array>
          </mxGeometry>
        </mxCell>
        <mxCell id="T9cSecS2KiQrXJoiudAQ-2" value="" style="shape=waypoint;sketch=0;fillStyle=solid;size=6;pointerEvents=1;points=[];fillColor=none;resizable=0;rotatable=0;perimeter=centerPerimeter;snapToPoint=1;fontSize=10;" parent="1" vertex="1">
          <mxGeometry x="1034" y="1132" width="40" height="40" as="geometry" />
        </mxCell>
        <mxCell id="T9cSecS2KiQrXJoiudAQ-3" value="includes" style="text;html=1;align=center;verticalAlign=middle;resizable=0;points=[];autosize=1;strokeColor=none;fillColor=none;fontSize=12;fontStyle=1;fontColor=#CC6600;" parent="1" vertex="1">
          <mxGeometry x="1057.5" y="1142" width="60" height="20" as="geometry" />
        </mxCell>
        <mxCell id="T9cSecS2KiQrXJoiudAQ-4" value="" style="edgeStyle=orthogonalEdgeStyle;rounded=0;orthogonalLoop=1;jettySize=auto;html=1;dashed=1;startArrow=none;startFill=0;endArrow=none;endFill=0;strokeColor=#00331A;strokeWidth=1;exitX=0;exitY=0.5;exitDx=0;exitDy=0;" parent="1" edge="1">
          <mxGeometry relative="1" as="geometry">
            <mxPoint x="1000" y="644" as="sourcePoint" />
            <mxPoint x="946" y="625.75" as="targetPoint" />
            <Array as="points">
              <mxPoint x="946" y="643.75" />
            </Array>
          </mxGeometry>
        </mxCell>
        <mxCell id="T9cSecS2KiQrXJoiudAQ-5" value="Inscricao.php" style="text;html=1;align=center;verticalAlign=middle;whiteSpace=wrap;rounded=0;fontStyle=1;fontSize=10;fontColor=#0000CC;" parent="1" vertex="1">
          <mxGeometry x="1007" y="633.75" width="65" height="20.5" as="geometry" />
        </mxCell>
        <mxCell id="T9cSecS2KiQrXJoiudAQ-6" value="" style="edgeStyle=orthogonalEdgeStyle;rounded=0;orthogonalLoop=1;jettySize=auto;html=1;dashed=1;startArrow=none;startFill=0;endArrow=none;endFill=0;strokeColor=#00331A;strokeWidth=1;" parent="1" edge="1">
          <mxGeometry relative="1" as="geometry">
            <mxPoint x="990" y="908" as="sourcePoint" />
            <mxPoint x="955" y="889.75" as="targetPoint" />
            <Array as="points">
              <mxPoint x="955" y="907.75" />
            </Array>
          </mxGeometry>
        </mxCell>
        <mxCell id="T9cSecS2KiQrXJoiudAQ-7" value="inscricao.view..php" style="text;html=1;align=center;verticalAlign=middle;whiteSpace=wrap;rounded=0;fontStyle=1;fontSize=10;fontColor=#CC6600;" parent="1" vertex="1">
          <mxGeometry x="1008" y="896.75" width="65" height="20.5" as="geometry" />
        </mxCell>
        <mxCell id="T9cSecS2KiQrXJoiudAQ-8" value="" style="edgeStyle=orthogonalEdgeStyle;rounded=0;orthogonalLoop=1;jettySize=auto;html=1;dashed=1;startArrow=classic;startFill=1;endArrow=none;endFill=0;strokeColor=#0000CC;strokeWidth=1;fontColor=#006600;fillColor=#a0522d;" parent="1" edge="1">
          <mxGeometry relative="1" as="geometry">
            <mxPoint x="1077" y="644" as="sourcePoint" />
            <mxPoint x="1087" y="909" as="targetPoint" />
            <Array as="points">
              <mxPoint x="1097" y="644" />
              <mxPoint x="1097" y="909" />
            </Array>
          </mxGeometry>
        </mxCell>
        <mxCell id="T9cSecS2KiQrXJoiudAQ-9" value="" style="edgeStyle=orthogonalEdgeStyle;rounded=0;orthogonalLoop=1;jettySize=auto;html=1;dashed=1;startArrow=none;startFill=0;endArrow=none;endFill=0;strokeColor=#00331A;strokeWidth=1;exitX=0;exitY=0.5;exitDx=0;exitDy=0;" parent="1" edge="1">
          <mxGeometry relative="1" as="geometry">
            <mxPoint x="1000" y="659" as="sourcePoint" />
            <mxPoint x="946" y="640.75" as="targetPoint" />
            <Array as="points">
              <mxPoint x="946" y="658.75" />
            </Array>
          </mxGeometry>
        </mxCell>
        <mxCell id="T9cSecS2KiQrXJoiudAQ-10" value="Login.php" style="text;html=1;align=center;verticalAlign=middle;whiteSpace=wrap;rounded=0;fontStyle=1;fontSize=10;fontColor=#0000CC;" parent="1" vertex="1">
          <mxGeometry x="998.5" y="648.5" width="65" height="20.5" as="geometry" />
        </mxCell>
        <mxCell id="T9cSecS2KiQrXJoiudAQ-11" value="" style="edgeStyle=orthogonalEdgeStyle;rounded=0;orthogonalLoop=1;jettySize=auto;html=1;dashed=1;startArrow=none;startFill=0;endArrow=none;endFill=0;strokeColor=#00331A;strokeWidth=1;" parent="1" edge="1">
          <mxGeometry relative="1" as="geometry">
            <mxPoint x="990" y="926" as="sourcePoint" />
            <mxPoint x="955" y="907.75" as="targetPoint" />
            <Array as="points">
              <mxPoint x="955" y="925.75" />
            </Array>
          </mxGeometry>
        </mxCell>
        <mxCell id="T9cSecS2KiQrXJoiudAQ-12" value="login.view..php" style="text;html=1;align=center;verticalAlign=middle;whiteSpace=wrap;rounded=0;fontStyle=1;fontSize=10;fontColor=#CC6600;" parent="1" vertex="1">
          <mxGeometry x="998" y="915.75" width="65" height="20.5" as="geometry" />
        </mxCell>
        <mxCell id="T9cSecS2KiQrXJoiudAQ-13" value="" style="edgeStyle=orthogonalEdgeStyle;rounded=0;orthogonalLoop=1;jettySize=auto;html=1;dashed=1;startArrow=classic;startFill=1;endArrow=none;endFill=0;strokeColor=#0000CC;strokeWidth=1;fontColor=#006600;fillColor=#a0522d;" parent="1" edge="1">
          <mxGeometry relative="1" as="geometry">
            <mxPoint x="1060" y="662" as="sourcePoint" />
            <mxPoint x="1070" y="927" as="targetPoint" />
            <Array as="points">
              <mxPoint x="1097" y="662" />
              <mxPoint x="1097" y="927" />
            </Array>
          </mxGeometry>
        </mxCell>
        <mxCell id="T9cSecS2KiQrXJoiudAQ-14" value="" style="edgeStyle=orthogonalEdgeStyle;rounded=0;orthogonalLoop=1;jettySize=auto;html=1;dashed=1;startArrow=none;startFill=0;endArrow=none;endFill=0;strokeColor=#00331A;strokeWidth=1;" parent="1" edge="1">
          <mxGeometry relative="1" as="geometry">
            <mxPoint x="1109" y="1176" as="sourcePoint" />
            <mxPoint x="1074" y="1157.75" as="targetPoint" />
            <Array as="points">
              <mxPoint x="1074" y="1175.75" />
            </Array>
          </mxGeometry>
        </mxCell>
        <mxCell id="T9cSecS2KiQrXJoiudAQ-15" value="header.view..php" style="text;html=1;align=center;verticalAlign=middle;whiteSpace=wrap;rounded=0;fontStyle=1;fontSize=10;fontColor=#CC6600;" parent="1" vertex="1">
          <mxGeometry x="1117" y="1164.75" width="65" height="20.5" as="geometry" />
        </mxCell>
        <mxCell id="T9cSecS2KiQrXJoiudAQ-16" value="" style="edgeStyle=orthogonalEdgeStyle;rounded=0;orthogonalLoop=1;jettySize=auto;html=1;dashed=1;startArrow=none;startFill=0;endArrow=none;endFill=0;strokeColor=#00331A;strokeWidth=1;" parent="1" edge="1">
          <mxGeometry relative="1" as="geometry">
            <mxPoint x="1109" y="1196" as="sourcePoint" />
            <mxPoint x="1074" y="1177.75" as="targetPoint" />
            <Array as="points">
              <mxPoint x="1074" y="1195.75" />
            </Array>
          </mxGeometry>
        </mxCell>
        <mxCell id="T9cSecS2KiQrXJoiudAQ-17" value="footer.view..php" style="text;html=1;align=center;verticalAlign=middle;whiteSpace=wrap;rounded=0;fontStyle=1;fontSize=10;fontColor=#CC6600;" parent="1" vertex="1">
          <mxGeometry x="1118" y="1185.75" width="65" height="20.5" as="geometry" />
        </mxCell>
        <mxCell id="T9cSecS2KiQrXJoiudAQ-18" value="" style="edgeStyle=orthogonalEdgeStyle;rounded=0;orthogonalLoop=1;jettySize=auto;html=1;dashed=1;startArrow=none;startFill=0;endArrow=none;endFill=0;strokeColor=#00331A;strokeWidth=1;" parent="1" edge="1">
          <mxGeometry relative="1" as="geometry">
            <mxPoint x="990" y="945" as="sourcePoint" />
            <mxPoint x="955" y="926.75" as="targetPoint" />
            <Array as="points">
              <mxPoint x="955" y="944.75" />
            </Array>
          </mxGeometry>
        </mxCell>
        <mxCell id="T9cSecS2KiQrXJoiudAQ-19" value="404.view..php" style="text;html=1;align=center;verticalAlign=middle;whiteSpace=wrap;rounded=0;fontStyle=1;fontSize=10;fontColor=#0000CC;" parent="1" vertex="1">
          <mxGeometry x="996" y="934.75" width="65" height="20.5" as="geometry" />
        </mxCell>
        <mxCell id="T9cSecS2KiQrXJoiudAQ-20" value="" style="edgeStyle=orthogonalEdgeStyle;rounded=0;orthogonalLoop=1;jettySize=auto;html=1;dashed=1;startArrow=none;startFill=0;endArrow=classic;endFill=1;strokeColor=#0000CC;strokeWidth=1;fillColor=#a0522d;fontColor=#0000CC;entryX=0.5;entryY=1;entryDx=0;entryDy=0;exitX=1;exitY=0.5;exitDx=0;exitDy=0;" parent="1" source="T9cSecS2KiQrXJoiudAQ-19" target="EJInJD_8tcGKx5hPsD_K-28" edge="1">
          <mxGeometry relative="1" as="geometry">
            <mxPoint x="1220" y="952" as="sourcePoint" />
            <mxPoint x="1172" y="686" as="targetPoint" />
            <Array as="points">
              <mxPoint x="1226" y="945" />
              <mxPoint x="1226" y="698" />
            </Array>
          </mxGeometry>
        </mxCell>
        <mxCell id="T9cSecS2KiQrXJoiudAQ-21" value="IN" style="text;html=1;align=center;verticalAlign=middle;resizable=0;points=[];autosize=1;strokeColor=none;fillColor=none;fontColor=#CC6600;fontStyle=1;fontSize=10;" parent="1" vertex="1">
          <mxGeometry x="1195" y="929.5" width="30" height="20" as="geometry" />
        </mxCell>
        <mxCell id="5x5C2FMsXokr-4d8ZSbK-1" value="nav.view..php" style="text;html=1;align=center;verticalAlign=middle;whiteSpace=wrap;rounded=0;fontStyle=1;fontSize=10;fontColor=#CC6600;" parent="1" vertex="1">
          <mxGeometry x="1112" y="1204.75" width="65" height="20.5" as="geometry" />
        </mxCell>
        <mxCell id="5x5C2FMsXokr-4d8ZSbK-2" value="" style="edgeStyle=orthogonalEdgeStyle;rounded=0;orthogonalLoop=1;jettySize=auto;html=1;dashed=1;startArrow=none;startFill=0;endArrow=none;endFill=0;strokeColor=#00331A;strokeWidth=1;" parent="1" edge="1">
          <mxGeometry relative="1" as="geometry">
            <mxPoint x="1109" y="1216" as="sourcePoint" />
            <mxPoint x="1074" y="1197.75" as="targetPoint" />
            <Array as="points">
              <mxPoint x="1074" y="1215.75" />
            </Array>
          </mxGeometry>
        </mxCell>
        <mxCell id="5x5C2FMsXokr-4d8ZSbK-3" value="" style="edgeStyle=orthogonalEdgeStyle;rounded=0;orthogonalLoop=1;jettySize=auto;html=1;fontColor=#CC6600;startArrow=oval;startFill=1;endArrow=classic;endFill=1;strokeColor=#CC6600;strokeWidth=2;" parent="1" source="5x5C2FMsXokr-4d8ZSbK-4" edge="1">
          <mxGeometry relative="1" as="geometry">
            <Array as="points">
              <mxPoint x="600" y="1240" />
              <mxPoint x="600" y="1240" />
            </Array>
            <mxPoint x="840" y="1240" as="targetPoint" />
            <mxPoint x="550" y="1160" as="sourcePoint" />
          </mxGeometry>
        </mxCell>
        <mxCell id="5x5C2FMsXokr-4d8ZSbK-24" value="" style="edgeStyle=orthogonalEdgeStyle;rounded=0;orthogonalLoop=1;jettySize=auto;html=1;" parent="1" source="5x5C2FMsXokr-4d8ZSbK-4" target="5x5C2FMsXokr-4d8ZSbK-13" edge="1">
          <mxGeometry relative="1" as="geometry">
            <mxPoint x="377.5" y="1227.75" as="targetPoint" />
            <Array as="points">
              <mxPoint x="410" y="1247.75" />
              <mxPoint x="410" y="1247.75" />
            </Array>
          </mxGeometry>
        </mxCell>
        <mxCell id="5x5C2FMsXokr-4d8ZSbK-4" value="loja_db" style="shape=cylinder3;whiteSpace=wrap;html=1;boundedLbl=1;backgroundOutline=1;size=15;" parent="1" vertex="1">
          <mxGeometry x="450" y="1182.75" width="65" height="90" as="geometry" />
        </mxCell>
        <mxCell id="5x5C2FMsXokr-4d8ZSbK-7" value="users" style="swimlane;fontStyle=0;childLayout=stackLayout;horizontal=1;startSize=30;horizontalStack=0;resizeParent=1;resizeParentMax=0;resizeLast=0;collapsible=1;marginBottom=0;" parent="1" vertex="1">
          <mxGeometry x="180" y="1112.75" width="140" height="270" as="geometry" />
        </mxCell>
        <mxCell id="5x5C2FMsXokr-4d8ZSbK-8" value="id(int11) - PK" style="text;strokeColor=#d6b656;fillColor=#fff2cc;align=left;verticalAlign=middle;spacingLeft=4;spacingRight=4;overflow=hidden;points=[[0,0.5],[1,0.5]];portConstraint=eastwest;rotatable=0;" parent="5x5C2FMsXokr-4d8ZSbK-7" vertex="1">
          <mxGeometry y="30" width="140" height="30" as="geometry" />
        </mxCell>
        <mxCell id="5x5C2FMsXokr-4d8ZSbK-9" value="firsname - varch(20)" style="text;strokeColor=#6c8ebf;fillColor=#dae8fc;align=left;verticalAlign=middle;spacingLeft=4;spacingRight=4;overflow=hidden;points=[[0,0.5],[1,0.5]];portConstraint=eastwest;rotatable=0;" parent="5x5C2FMsXokr-4d8ZSbK-7" vertex="1">
          <mxGeometry y="60" width="140" height="30" as="geometry" />
        </mxCell>
        <mxCell id="5x5C2FMsXokr-4d8ZSbK-12" value="lastname - varch(20)" style="text;strokeColor=#6c8ebf;fillColor=#dae8fc;align=left;verticalAlign=middle;spacingLeft=4;spacingRight=4;overflow=hidden;points=[[0,0.5],[1,0.5]];portConstraint=eastwest;rotatable=0;" parent="5x5C2FMsXokr-4d8ZSbK-7" vertex="1">
          <mxGeometry y="90" width="140" height="30" as="geometry" />
        </mxCell>
        <mxCell id="5x5C2FMsXokr-4d8ZSbK-13" value="date - datetime" style="text;strokeColor=#6c8ebf;fillColor=#dae8fc;align=left;verticalAlign=middle;spacingLeft=4;spacingRight=4;overflow=hidden;points=[[0,0.5],[1,0.5]];portConstraint=eastwest;rotatable=0;" parent="5x5C2FMsXokr-4d8ZSbK-7" vertex="1">
          <mxGeometry y="120" width="140" height="30" as="geometry" />
        </mxCell>
        <mxCell id="5x5C2FMsXokr-4d8ZSbK-14" value="user_id - varch(60)" style="text;strokeColor=#6c8ebf;fillColor=#dae8fc;align=left;verticalAlign=middle;spacingLeft=4;spacingRight=4;overflow=hidden;points=[[0,0.5],[1,0.5]];portConstraint=eastwest;rotatable=0;" parent="5x5C2FMsXokr-4d8ZSbK-7" vertex="1">
          <mxGeometry y="150" width="140" height="30" as="geometry" />
        </mxCell>
        <mxCell id="5x5C2FMsXokr-4d8ZSbK-15" value="gender - varch(6)" style="text;strokeColor=#6c8ebf;fillColor=#dae8fc;align=left;verticalAlign=middle;spacingLeft=4;spacingRight=4;overflow=hidden;points=[[0,0.5],[1,0.5]];portConstraint=eastwest;rotatable=0;" parent="5x5C2FMsXokr-4d8ZSbK-7" vertex="1">
          <mxGeometry y="180" width="140" height="30" as="geometry" />
        </mxCell>
        <mxCell id="5x5C2FMsXokr-4d8ZSbK-16" value="school_id - varch(60)" style="text;strokeColor=#6c8ebf;fillColor=#dae8fc;align=left;verticalAlign=middle;spacingLeft=4;spacingRight=4;overflow=hidden;points=[[0,0.5],[1,0.5]];portConstraint=eastwest;rotatable=0;" parent="5x5C2FMsXokr-4d8ZSbK-7" vertex="1">
          <mxGeometry y="210" width="140" height="30" as="geometry" />
        </mxCell>
        <mxCell id="5x5C2FMsXokr-4d8ZSbK-17" value="rank - varch(20)" style="text;strokeColor=#6c8ebf;fillColor=#dae8fc;align=left;verticalAlign=middle;spacingLeft=4;spacingRight=4;overflow=hidden;points=[[0,0.5],[1,0.5]];portConstraint=eastwest;rotatable=0;" parent="5x5C2FMsXokr-4d8ZSbK-7" vertex="1">
          <mxGeometry y="240" width="140" height="30" as="geometry" />
        </mxCell>
        <mxCell id="5x5C2FMsXokr-4d8ZSbK-18" value="" style="edgeStyle=orthogonalEdgeStyle;rounded=0;orthogonalLoop=1;jettySize=auto;html=1;dashed=1;startArrow=none;startFill=0;endArrow=none;endFill=0;strokeColor=#00331A;strokeWidth=1;exitX=0;exitY=0.5;exitDx=0;exitDy=0;" parent="1" edge="1">
          <mxGeometry relative="1" as="geometry">
            <mxPoint x="1000" y="677" as="sourcePoint" />
            <mxPoint x="946" y="658.75" as="targetPoint" />
            <Array as="points">
              <mxPoint x="946" y="676.75" />
            </Array>
          </mxGeometry>
        </mxCell>
        <mxCell id="5x5C2FMsXokr-4d8ZSbK-19" value="Perfil.php" style="text;html=1;align=center;verticalAlign=middle;whiteSpace=wrap;rounded=0;fontStyle=1;fontSize=10;fontColor=#0000CC;" parent="1" vertex="1">
          <mxGeometry x="996.5" y="665.5" width="65" height="20.5" as="geometry" />
        </mxCell>
        <mxCell id="5x5C2FMsXokr-4d8ZSbK-20" value="" style="edgeStyle=orthogonalEdgeStyle;rounded=0;orthogonalLoop=1;jettySize=auto;html=1;dashed=1;startArrow=classic;startFill=1;endArrow=none;endFill=0;strokeColor=#0000CC;strokeWidth=1;fontColor=#006600;fillColor=#a0522d;" parent="1" edge="1">
          <mxGeometry relative="1" as="geometry">
            <mxPoint x="1059" y="677" as="sourcePoint" />
            <mxPoint x="1070" y="962" as="targetPoint" />
            <Array as="points">
              <mxPoint x="1096" y="677" />
              <mxPoint x="1096" y="962" />
            </Array>
          </mxGeometry>
        </mxCell>
        <mxCell id="5x5C2FMsXokr-4d8ZSbK-21" value="perfil.view..php" style="text;html=1;align=center;verticalAlign=middle;whiteSpace=wrap;rounded=0;fontStyle=1;fontSize=10;fontColor=#CC6600;" parent="1" vertex="1">
          <mxGeometry x="999" y="950.75" width="65" height="20.5" as="geometry" />
        </mxCell>
        <mxCell id="5x5C2FMsXokr-4d8ZSbK-22" value="" style="edgeStyle=orthogonalEdgeStyle;rounded=0;orthogonalLoop=1;jettySize=auto;html=1;dashed=1;startArrow=none;startFill=0;endArrow=none;endFill=0;strokeColor=#00331A;strokeWidth=1;" parent="1" edge="1">
          <mxGeometry relative="1" as="geometry">
            <mxPoint x="990" y="963" as="sourcePoint" />
            <mxPoint x="955" y="944.75" as="targetPoint" />
            <Array as="points">
              <mxPoint x="955" y="963" />
            </Array>
          </mxGeometry>
        </mxCell>
        <mxCell id="5x5C2FMsXokr-4d8ZSbK-25" value="" style="edgeStyle=orthogonalEdgeStyle;rounded=0;orthogonalLoop=1;jettySize=auto;html=1;dashed=1;startArrow=none;startFill=0;endArrow=none;endFill=0;strokeColor=#00331A;strokeWidth=1;" parent="1" edge="1">
          <mxGeometry relative="1" as="geometry">
            <mxPoint x="1109" y="1216" as="sourcePoint" />
            <mxPoint x="1074" y="1197.75" as="targetPoint" />
            <Array as="points">
              <mxPoint x="1074" y="1215.75" />
            </Array>
          </mxGeometry>
        </mxCell>
        <mxCell id="5x5C2FMsXokr-4d8ZSbK-26" value="" style="edgeStyle=orthogonalEdgeStyle;rounded=0;orthogonalLoop=1;jettySize=auto;html=1;dashed=1;startArrow=none;startFill=0;endArrow=none;endFill=0;strokeColor=#00331A;strokeWidth=1;" parent="1" edge="1">
          <mxGeometry relative="1" as="geometry">
            <mxPoint x="1109" y="1232" as="sourcePoint" />
            <mxPoint x="1074" y="1213.75" as="targetPoint" />
            <Array as="points">
              <mxPoint x="1074" y="1231.75" />
            </Array>
          </mxGeometry>
        </mxCell>
        <mxCell id="5x5C2FMsXokr-4d8ZSbK-27" value="file.view..php" style="text;html=1;align=center;verticalAlign=middle;whiteSpace=wrap;rounded=0;fontStyle=1;fontSize=10;fontColor=#CC6600;" parent="1" vertex="1">
          <mxGeometry x="1111" y="1220.75" width="65" height="20.5" as="geometry" />
        </mxCell>
        <mxCell id="5x5C2FMsXokr-4d8ZSbK-28" value="IN" style="text;html=1;align=center;verticalAlign=middle;resizable=0;points=[];autosize=1;strokeColor=none;fillColor=none;fontColor=#CC6600;fontStyle=1;fontSize=10;" parent="1" vertex="1">
          <mxGeometry x="936" y="1132" width="30" height="20" as="geometry" />
        </mxCell>
        <mxCell id="5x5C2FMsXokr-4d8ZSbK-30" value="ROOT" style="text;html=1;align=center;verticalAlign=middle;resizable=0;points=[];autosize=1;strokeColor=none;fillColor=none;fontColor=#FF66B3;fontStyle=1;fontSize=10;" parent="1" vertex="1">
          <mxGeometry x="903" y="419.5" width="40" height="20" as="geometry" />
        </mxCell>
        <mxCell id="5x5C2FMsXokr-4d8ZSbK-31" value="DB" style="text;html=1;align=center;verticalAlign=middle;resizable=0;points=[];autosize=1;strokeColor=none;fillColor=none;fontColor=#A680B8;fontStyle=1;fontSize=10;" parent="1" vertex="1">
          <mxGeometry x="908" y="438.5" width="30" height="20" as="geometry" />
        </mxCell>
        <mxCell id="5x5C2FMsXokr-4d8ZSbK-32" value="CP" style="text;html=1;align=center;verticalAlign=middle;resizable=0;points=[];autosize=1;strokeColor=none;fillColor=none;fontColor=#994C00;fontStyle=1;fontSize=10;" parent="1" vertex="1">
          <mxGeometry x="908" y="459.5" width="30" height="20" as="geometry" />
        </mxCell>
        <mxCell id="5x5C2FMsXokr-4d8ZSbK-33" value="SOURCE" style="text;html=1;align=center;verticalAlign=middle;resizable=0;points=[];autosize=1;strokeColor=none;fillColor=none;fontColor=#006600;fontStyle=1;fontSize=10;" parent="1" vertex="1">
          <mxGeometry x="894" y="397.5" width="60" height="20" as="geometry" />
        </mxCell>
        <mxCell id="5x5C2FMsXokr-4d8ZSbK-34" value="WEB" style="text;html=1;align=center;verticalAlign=middle;resizable=0;points=[];autosize=1;strokeColor=none;fillColor=none;fontColor=#0000CC;fontStyle=1;fontSize=10;" parent="1" vertex="1">
          <mxGeometry x="905" y="375.5" width="40" height="20" as="geometry" />
        </mxCell>
        <mxCell id="Ih1xz2FAKS6eNhKwmkHh-1" value="" style="edgeStyle=orthogonalEdgeStyle;rounded=0;orthogonalLoop=1;jettySize=auto;html=1;dashed=1;startArrow=none;startFill=0;endArrow=none;endFill=0;strokeColor=#00331A;strokeWidth=1;" parent="1" edge="1">
          <mxGeometry relative="1" as="geometry">
            <mxPoint x="939" y="1778" as="sourcePoint" />
            <mxPoint x="859" y="1535" as="targetPoint" />
            <Array as="points">
              <mxPoint x="922" y="1778" />
              <mxPoint x="840" y="1778" />
              <mxPoint x="840" y="1435" />
            </Array>
          </mxGeometry>
        </mxCell>
        <mxCell id="Ih1xz2FAKS6eNhKwmkHh-2" value="thirdparty" style="text;html=1;align=center;verticalAlign=middle;resizable=0;points=[];autosize=1;strokeColor=none;fillColor=none;fontSize=12;" parent="1" vertex="1">
          <mxGeometry x="942" y="1526" width="70" height="20" as="geometry" />
        </mxCell>
        <mxCell id="Ih1xz2FAKS6eNhKwmkHh-3" value="" style="shape=waypoint;sketch=0;fillStyle=solid;size=6;pointerEvents=1;points=[];fillColor=none;resizable=0;rotatable=0;perimeter=centerPerimeter;snapToPoint=1;fontSize=10;" parent="1" vertex="1">
          <mxGeometry x="925" y="1515" width="40" height="40" as="geometry" />
        </mxCell>
        <mxCell id="u0VLHVHsX8ctTGrlZP7H-1" value="" style="edgeStyle=orthogonalEdgeStyle;rounded=0;orthogonalLoop=1;jettySize=auto;html=1;dashed=1;startArrow=none;startFill=0;endArrow=none;endFill=0;strokeColor=#00331A;strokeWidth=1;exitX=0;exitY=0.5;exitDx=0;exitDy=0;" parent="1" edge="1">
          <mxGeometry relative="1" as="geometry">
            <mxPoint x="667" y="526" as="sourcePoint" />
            <mxPoint x="615" y="507.75" as="targetPoint" />
            <Array as="points">
              <mxPoint x="615" y="526" />
            </Array>
          </mxGeometry>
        </mxCell>
        <mxCell id="u0VLHVHsX8ctTGrlZP7H-2" value="index.php" style="text;html=1;align=center;verticalAlign=middle;whiteSpace=wrap;rounded=0;fontStyle=1;fontSize=10;fontColor=#FF3333;" parent="1" vertex="1">
          <mxGeometry x="659" y="513.75" width="65" height="20.5" as="geometry" />
        </mxCell>
        <mxCell id="48nGXWqi-L3sgimfAy3T-1" value="" style="edgeStyle=orthogonalEdgeStyle;rounded=0;orthogonalLoop=1;jettySize=auto;html=1;dashed=1;startArrow=none;startFill=0;endArrow=none;endFill=0;strokeColor=#00331A;strokeWidth=1;exitX=0;exitY=0.5;exitDx=0;exitDy=0;" parent="1" edge="1">
          <mxGeometry relative="1" as="geometry">
            <mxPoint x="894" y="520" as="sourcePoint" />
            <mxPoint x="842" y="501.75" as="targetPoint" />
            <Array as="points">
              <mxPoint x="842" y="520" />
            </Array>
          </mxGeometry>
        </mxCell>
        <mxCell id="48nGXWqi-L3sgimfAy3T-2" value="index.php" style="text;html=1;align=center;verticalAlign=middle;whiteSpace=wrap;rounded=0;fontStyle=1;fontSize=10;fontColor=#FF3333;" parent="1" vertex="1">
          <mxGeometry x="886" y="507.75" width="65" height="20.5" as="geometry" />
        </mxCell>
        <mxCell id="48nGXWqi-L3sgimfAy3T-3" value="" style="edgeStyle=orthogonalEdgeStyle;rounded=0;orthogonalLoop=1;jettySize=auto;html=1;dashed=1;startArrow=none;startFill=0;endArrow=none;endFill=0;strokeColor=#00331A;strokeWidth=1;exitX=0;exitY=0.5;exitDx=0;exitDy=0;" parent="1" edge="1">
          <mxGeometry relative="1" as="geometry">
            <mxPoint x="894" y="673" as="sourcePoint" />
            <mxPoint x="842" y="654.75" as="targetPoint" />
            <Array as="points">
              <mxPoint x="842" y="673" />
            </Array>
          </mxGeometry>
        </mxCell>
        <mxCell id="48nGXWqi-L3sgimfAy3T-4" value="index.php" style="text;html=1;align=center;verticalAlign=middle;whiteSpace=wrap;rounded=0;fontStyle=1;fontSize=10;fontColor=#FF3333;" parent="1" vertex="1">
          <mxGeometry x="886" y="660.75" width="54" height="20.5" as="geometry" />
        </mxCell>
        <mxCell id="48nGXWqi-L3sgimfAy3T-5" value="" style="edgeStyle=orthogonalEdgeStyle;rounded=0;orthogonalLoop=1;jettySize=auto;html=1;dashed=1;startArrow=none;startFill=0;endArrow=none;endFill=0;strokeColor=#00331A;strokeWidth=1;" parent="1" edge="1">
          <mxGeometry relative="1" as="geometry">
            <mxPoint x="910" y="360" as="sourcePoint" />
            <mxPoint x="854" y="351.75" as="targetPoint" />
            <Array as="points">
              <mxPoint x="906" y="360" />
              <mxPoint x="854" y="360" />
            </Array>
          </mxGeometry>
        </mxCell>
        <mxCell id="48nGXWqi-L3sgimfAy3T-6" value="index.php" style="text;html=1;align=center;verticalAlign=middle;whiteSpace=wrap;rounded=0;fontStyle=1;fontSize=10;fontColor=#FF3333;" parent="1" vertex="1">
          <mxGeometry x="903" y="349" width="65" height="20.5" as="geometry" />
        </mxCell>
        <mxCell id="48nGXWqi-L3sgimfAy3T-7" value="" style="edgeStyle=orthogonalEdgeStyle;rounded=0;orthogonalLoop=1;jettySize=auto;html=1;dashed=1;startArrow=none;startFill=0;endArrow=none;endFill=0;strokeColor=#00331A;strokeWidth=1;" parent="1" edge="1">
          <mxGeometry relative="1" as="geometry">
            <mxPoint x="920" y="496" as="sourcePoint" />
            <mxPoint x="891" y="474" as="targetPoint" />
            <Array as="points">
              <mxPoint x="891" y="496" />
            </Array>
          </mxGeometry>
        </mxCell>
        <mxCell id="48nGXWqi-L3sgimfAy3T-8" value="functions" style="text;html=1;align=center;verticalAlign=middle;whiteSpace=wrap;rounded=0;fontStyle=1;fontSize=10;fontColor=#67AB9F;" parent="1" vertex="1">
          <mxGeometry x="912" y="484.5" width="65" height="20.5" as="geometry" />
        </mxCell>
        <mxCell id="48nGXWqi-L3sgimfAy3T-13" value="" style="shape=waypoint;sketch=0;fillStyle=solid;size=6;pointerEvents=1;points=[];fillColor=none;resizable=0;rotatable=0;perimeter=centerPerimeter;snapToPoint=1;fontSize=10;fontStyle=1" parent="1" vertex="1">
          <mxGeometry x="622" y="551.75" width="40" height="40" as="geometry" />
        </mxCell>
        <mxCell id="48nGXWqi-L3sgimfAy3T-14" value="js" style="text;html=1;align=center;verticalAlign=middle;resizable=0;points=[];autosize=1;strokeColor=none;fillColor=none;fontSize=12;" parent="1" vertex="1">
          <mxGeometry x="651" y="561.75" width="20" height="20" as="geometry" />
        </mxCell>
        <mxCell id="48nGXWqi-L3sgimfAy3T-15" value="" style="shape=waypoint;sketch=0;fillStyle=solid;size=6;pointerEvents=1;points=[];fillColor=none;resizable=0;rotatable=0;perimeter=centerPerimeter;snapToPoint=1;fontSize=10;fontStyle=1" parent="1" vertex="1">
          <mxGeometry x="625" y="520.75" width="40" height="40" as="geometry" />
        </mxCell>
        <mxCell id="48nGXWqi-L3sgimfAy3T-16" value="images" style="text;html=1;align=center;verticalAlign=middle;resizable=0;points=[];autosize=1;strokeColor=none;fillColor=none;fontSize=12;" parent="1" vertex="1">
          <mxGeometry x="647" y="530.75" width="50" height="20" as="geometry" />
        </mxCell>
        <mxCell id="48nGXWqi-L3sgimfAy3T-19" value="fonts" style="text;html=1;align=center;verticalAlign=middle;resizable=0;points=[];autosize=1;strokeColor=none;fillColor=none;fontSize=12;" parent="1" vertex="1">
          <mxGeometry x="641" y="547.75" width="40" height="20" as="geometry" />
        </mxCell>
        <mxCell id="48nGXWqi-L3sgimfAy3T-20" value="" style="shape=waypoint;sketch=0;fillStyle=solid;size=6;pointerEvents=1;points=[];fillColor=none;resizable=0;rotatable=0;perimeter=centerPerimeter;snapToPoint=1;fontSize=10;fontStyle=1" parent="1" vertex="1">
          <mxGeometry x="621" y="535.75" width="40" height="40" as="geometry" />
        </mxCell>
      </root>
    </mxGraphModel>
  </diagram>
</mxfile>
